<svg id="visual" viewBox="0 0 6000 900" width="6000" height="900" xmlns="http://www.w3.org/2000/svg" xmlns:xlink="http://www.w3.org/1999/xlink" version="1.1"><path d="M0 787L43.5 781.5C87 776 174 765 261 757.7C348 750.3 435 746.7 522 751.2C609 755.7 696 768.3 782.8 769.8C869.7 771.3 956.3 761.7 1043.2 764.2C1130 766.7 1217 781.3 1304 787C1391 792.7 1478 789.3 1565 790C1652 790.7 1739 795.3 1826 789.2C1913 783 2000 766 2087 760.7C2174 755.3 2261 761.7 2348 769.7C2435 777.7 2522 787.3 2609 793.5C2696 799.7 2783 802.3 2869.8 799.5C2956.7 796.7 3043.3 788.3 3130.2 784.2C3217 780 3304 780 3391 782.2C3478 784.3 3565 788.7 3652 792.3C3739 796 3826 799 3913 792.7C4000 786.3 4087 770.7 4174 762.8C4261 755 4348 755 4435 762.5C4522 770 4609 785 4696 786.3C4783 787.7 4870 775.3 4956.8 770.5C5043.7 765.7 5130.3 768.3 5217.2 768.5C5304 768.7 5391 766.3 5478 769.7C5565 773 5652 782 5739 785.3C5826 788.7 5913 786.3 5956.5 785.2L6000 784L6000 901L5956.5 901C5913 901 5826 901 5739 901C5652 901 5565 901 5478 901C5391 901 5304 901 5217.2 901C5130.3 901 5043.7 901 4956.8 901C4870 901 4783 901 4696 901C4609 901 4522 901 4435 901C4348 901 4261 901 4174 901C4087 901 4000 901 3913 901C3826 901 3739 901 3652 901C3565 901 3478 901 3391 901C3304 901 3217 901 3130.2 901C3043.3 901 2956.7 901 2869.8 901C2783 901 2696 901 2609 901C2522 901 2435 901 2348 901C2261 901 2174 901 2087 901C2000 901 1913 901 1826 901C1739 901 1652 901 1565 901C1478 901 1391 901 1304 901C1217 901 1130 901 1043.2 901C956.3 901 869.7 901 782.8 901C696 901 609 901 522 901C435 901 348 901 261 901C174 901 87 901 43.5 901L0 901Z" fill="#feb600"></path><path d="M0 782L43.5 784.2C87 786.3 174 790.7 261 796.8C348 803 435 811 522 808.2C609 805.3 696 791.7 782.8 790.8C869.7 790 956.3 802 1043.2 806.3C1130 810.7 1217 807.3 1304 807.5C1391 807.7 1478 811.3 1565 810.5C1652 809.7 1739 804.3 1826 803.2C1913 802 2000 805 2087 808.2C2174 811.3 2261 814.7 2348 810C2435 805.3 2522 792.7 2609 790.8C2696 789 2783 798 2869.8 795.3C2956.7 792.7 3043.3 778.3 3130.2 774.2C3217 770 3304 776 3391 785.2C3478 794.3 3565 806.7 3652 804.7C3739 802.7 3826 786.3 3913 779.2C4000 772 4087 774 4174 772.8C4261 771.7 4348 767.3 4435 771.3C4522 775.3 4609 787.7 4696 788.8C4783 790 4870 780 4956.8 779.7C5043.7 779.3 5130.3 788.7 5217.2 792C5304 795.3 5391 792.7 5478 796.3C5565 800 5652 810 5739 810.3C5826 810.7 5913 801.3 5956.5 796.7L6000 792L6000 901L5956.5 901C5913 901 5826 901 5739 901C5652 901 5565 901 5478 901C5391 901 5304 901 5217.2 901C5130.3 901 5043.7 901 4956.8 901C4870 901 4783 901 4696 901C4609 901 4522 901 4435 901C4348 901 4261 901 4174 901C4087 901 4000 901 3913 901C3826 901 3739 901 3652 901C3565 901 3478 901 3391 901C3304 901 3217 901 3130.2 901C3043.3 901 2956.7 901 2869.8 901C2783 901 2696 901 2609 901C2522 901 2435 901 2348 901C2261 901 2174 901 2087 901C2000 901 1913 901 1826 901C1739 901 1652 901 1565 901C1478 901 1391 901 1304 901C1217 901 1130 901 1043.2 901C956.3 901 869.7 901 782.8 901C696 901 609 901 522 901C435 901 348 901 261 901C174 901 87 901 43.5 901L0 901Z" fill="#ff9c2b"></path><path d="M0 799L43.5 799.3C87 799.7 174 800.3 261 800.7C348 801 435 801 522 797C609 793 696 785 782.8 783.3C869.7 781.7 956.3 786.3 1043.2 790.2C1130 794 1217 797 1304 795.2C1391 793.3 1478 786.7 1565 782.2C1652 777.7 1739 775.3 1826 774.2C1913 773 2000 773 2087 781.2C2174 789.3 2261 805.7 2348 814.8C2435 824 2522 826 2609 820.8C2696 815.7 2783 803.3 2869.8 796.7C2956.7 790 3043.3 789 3130.2 794.7C3217 800.3 3304 812.7 3391 813.3C3478 814 3565 803 3652 793.5C3739 784 3826 776 3913 780.8C4000 785.7 4087 803.3 4174 812.3C4261 821.3 4348 821.7 4435 818C4522 814.3 4609 806.7 4696 799.7C4783 792.7 4870 786.3 4956.8 790.7C5043.7 795 5130.3 810 5217.2 810C5304 810 5391 795 5478 789.3C5565 783.7 5652 787.3 5739 792.2C5826 797 5913 803 5956.5 806L6000 809L6000 901L5956.5 901C5913 901 5826 901 5739 901C5652 901 5565 901 5478 901C5391 901 5304 901 5217.2 901C5130.3 901 5043.7 901 4956.8 901C4870 901 4783 901 4696 901C4609 901 4522 901 4435 901C4348 901 4261 901 4174 901C4087 901 4000 901 3913 901C3826 901 3739 901 3652 901C3565 901 3478 901 3391 901C3304 901 3217 901 3130.2 901C3043.3 901 2956.7 901 2869.8 901C2783 901 2696 901 2609 901C2522 901 2435 901 2348 901C2261 901 2174 901 2087 901C2000 901 1913 901 1826 901C1739 901 1652 901 1565 901C1478 901 1391 901 1304 901C1217 901 1130 901 1043.2 901C956.3 901 869.7 901 782.8 901C696 901 609 901 522 901C435 901 348 901 261 901C174 901 87 901 43.5 901L0 901Z" fill="#ff8344"></path><path d="M0 823L43.5 821.8C87 820.7 174 818.3 261 819.3C348 820.3 435 824.7 522 821.8C609 819 696 809 782.8 801.8C869.7 794.7 956.3 790.3 1043.2 796.3C1130 802.3 1217 818.7 1304 826.3C1391 834 1478 833 1565 827.2C1652 821.3 1739 810.7 1826 810.3C1913 810 2000 820 2087 824.8C2174 829.7 2261 829.3 2348 827.3C2435 825.3 2522 821.7 2609 822.2C2696 822.7 2783 827.3 2869.8 828.5C2956.7 829.7 3043.3 827.3 3130.2 827.3C3217 827.3 3304 829.7 3391 828.5C3478 827.3 3565 822.7 3652 814.2C3739 805.7 3826 793.3 3913 791.5C4000 789.7 4087 798.3 4174 804.3C4261 810.3 4348 813.7 4435 816.8C4522 820 4609 823 4696 823.8C4783 824.7 4870 823.3 4956.8 822.8C5043.7 822.3 5130.3 822.7 5217.2 819.7C5304 816.7 5391 810.3 5478 805C5565 799.7 5652 795.3 5739 794.2C5826 793 5913 795 5956.5 796L6000 797L6000 901L5956.5 901C5913 901 5826 901 5739 901C5652 901 5565 901 5478 901C5391 901 5304 901 5217.2 901C5130.3 901 5043.7 901 4956.8 901C4870 901 4783 901 4696 901C4609 901 4522 901 4435 901C4348 901 4261 901 4174 901C4087 901 4000 901 3913 901C3826 901 3739 901 3652 901C3565 901 3478 901 3391 901C3304 901 3217 901 3130.2 901C3043.3 901 2956.7 901 2869.8 901C2783 901 2696 901 2609 901C2522 901 2435 901 2348 901C2261 901 2174 901 2087 901C2000 901 1913 901 1826 901C1739 901 1652 901 1565 901C1478 901 1391 901 1304 901C1217 901 1130 901 1043.2 901C956.3 901 869.7 901 782.8 901C696 901 609 901 522 901C435 901 348 901 261 901C174 901 87 901 43.5 901L0 901Z" fill="#f96f58"></path><path d="M0 841L43.5 833.2C87 825.3 174 809.7 261 804.8C348 800 435 806 522 805.8C609 805.7 696 799.3 782.8 801.7C869.7 804 956.3 815 1043.2 814.8C1130 814.7 1217 803.3 1304 805.2C1391 807 1478 822 1565 829C1652 836 1739 835 1826 828.7C1913 822.3 2000 810.7 2087 812C2174 813.3 2261 827.7 2348 832.8C2435 838 2522 834 2609 827.5C2696 821 2783 812 2869.8 810.3C2956.7 808.7 3043.3 814.3 3130.2 819.3C3217 824.3 3304 828.7 3391 829.2C3478 829.7 3565 826.3 3652 824.2C3739 822 3826 821 3913 817.2C4000 813.3 4087 806.7 4174 806.8C4261 807 4348 814 4435 813.3C4522 812.7 4609 804.3 4696 805.7C4783 807 4870 818 4956.8 824.7C5043.7 831.3 5130.3 833.7 5217.2 835.5C5304 837.3 5391 838.7 5478 832.5C5565 826.3 5652 812.7 5739 805C5826 797.3 5913 795.7 5956.5 794.8L6000 794L6000 901L5956.5 901C5913 901 5826 901 5739 901C5652 901 5565 901 5478 901C5391 901 5304 901 5217.2 901C5130.3 901 5043.7 901 4956.8 901C4870 901 4783 901 4696 901C4609 901 4522 901 4435 901C4348 901 4261 901 4174 901C4087 901 4000 901 3913 901C3826 901 3739 901 3652 901C3565 901 3478 901 3391 901C3304 901 3217 901 3130.2 901C3043.3 901 2956.7 901 2869.8 901C2783 901 2696 901 2609 901C2522 901 2435 901 2348 901C2261 901 2174 901 2087 901C2000 901 1913 901 1826 901C1739 901 1652 901 1565 901C1478 901 1391 901 1304 901C1217 901 1130 901 1043.2 901C956.3 901 869.7 901 782.8 901C696 901 609 901 522 901C435 901 348 901 261 901C174 901 87 901 43.5 901L0 901Z" fill="#e95f68"></path><path d="M0 816L43.5 819.2C87 822.3 174 828.7 261 833C348 837.3 435 839.7 522 838C609 836.3 696 830.7 782.8 827.8C869.7 825 956.3 825 1043.2 827.5C1130 830 1217 835 1304 834.3C1391 833.7 1478 827.3 1565 827C1652 826.7 1739 832.3 1826 831C1913 829.7 2000 821.3 2087 818.2C2174 815 2261 817 2348 820.8C2435 824.7 2522 830.3 2609 830.5C2696 830.7 2783 825.3 2869.8 821.3C2956.7 817.3 3043.3 814.7 3130.2 814.3C3217 814 3304 816 3391 820.2C3478 824.3 3565 830.7 3652 831.8C3739 833 3826 829 3913 829.5C4000 830 4087 835 4174 831.5C4261 828 4348 816 4435 812.8C4522 809.7 4609 815.3 4696 818.5C4783 821.7 4870 822.3 4956.8 823.5C5043.7 824.7 5130.3 826.3 5217.2 829.3C5304 832.3 5391 836.7 5478 836C5565 835.3 5652 829.7 5739 823.8C5826 818 5913 812 5956.5 809L6000 806L6000 901L5956.5 901C5913 901 5826 901 5739 901C5652 901 5565 901 5478 901C5391 901 5304 901 5217.2 901C5130.3 901 5043.7 901 4956.8 901C4870 901 4783 901 4696 901C4609 901 4522 901 4435 901C4348 901 4261 901 4174 901C4087 901 4000 901 3913 901C3826 901 3739 901 3652 901C3565 901 3478 901 3391 901C3304 901 3217 901 3130.2 901C3043.3 901 2956.7 901 2869.8 901C2783 901 2696 901 2609 901C2522 901 2435 901 2348 901C2261 901 2174 901 2087 901C2000 901 1913 901 1826 901C1739 901 1652 901 1565 901C1478 901 1391 901 1304 901C1217 901 1130 901 1043.2 901C956.3 901 869.7 901 782.8 901C696 901 609 901 522 901C435 901 348 901 261 901C174 901 87 901 43.5 901L0 901Z" fill="#d15575"></path><path d="M0 828L43.5 827.7C87 827.3 174 826.7 261 828.8C348 831 435 836 522 836.8C609 837.7 696 834.3 782.8 831.5C869.7 828.7 956.3 826.3 1043.2 824.7C1130 823 1217 822 1304 824.8C1391 827.7 1478 834.3 1565 837.3C1652 840.3 1739 839.7 1826 837.5C1913 835.3 2000 831.7 2087 834.2C2174 836.7 2261 845.3 2348 846.2C2435 847 2522 840 2609 835.5C2696 831 2783 829 2869.8 832.8C2956.7 836.7 3043.3 846.3 3130.2 849.2C3217 852 3304 848 3391 843.2C3478 838.3 3565 832.7 3652 831C3739 829.3 3826 831.7 3913 835.8C4000 840 4087 846 4174 843.3C4261 840.7 4348 829.3 4435 829.5C4522 829.7 4609 841.3 4696 842.2C4783 843 4870 833 4956.8 832.2C5043.7 831.3 5130.3 839.7 5217.2 844.8C5304 850 5391 852 5478 851.7C5565 851.3 5652 848.7 5739 843.2C5826 837.7 5913 829.3 5956.5 825.2L6000 821L6000 901L5956.5 901C5913 901 5826 901 5739 901C5652 901 5565 901 5478 901C5391 901 5304 901 5217.2 901C5130.3 901 5043.7 901 4956.8 901C4870 901 4783 901 4696 901C4609 901 4522 901 4435 901C4348 901 4261 901 4174 901C4087 901 4000 901 3913 901C3826 901 3739 901 3652 901C3565 901 3478 901 3391 901C3304 901 3217 901 3130.2 901C3043.3 901 2956.7 901 2869.8 901C2783 901 2696 901 2609 901C2522 901 2435 901 2348 901C2261 901 2174 901 2087 901C2000 901 1913 901 1826 901C1739 901 1652 901 1565 901C1478 901 1391 901 1304 901C1217 901 1130 901 1043.2 901C956.3 901 869.7 901 782.8 901C696 901 609 901 522 901C435 901 348 901 261 901C174 901 87 901 43.5 901L0 901Z" fill="#b6507c"></path><path d="M0 863L43.5 859.8C87 856.7 174 850.3 261 845.3C348 840.3 435 836.7 522 836.5C609 836.3 696 839.7 782.8 843.8C869.7 848 956.3 853 1043.2 851.3C1130 849.7 1217 841.3 1304 841.2C1391 841 1478 849 1565 854C1652 859 1739 861 1826 856.7C1913 852.3 2000 841.7 2087 838.8C2174 836 2261 841 2348 843.2C2435 845.3 2522 844.7 2609 845.2C2696 845.7 2783 847.3 2869.8 845.8C2956.7 844.3 3043.3 839.7 3130.2 840.7C3217 841.7 3304 848.3 3391 847.2C3478 846 3565 837 3652 835C3739 833 3826 838 3913 840.8C4000 843.7 4087 844.3 4174 845.7C4261 847 4348 849 4435 848C4522 847 4609 843 4696 842C4783 841 4870 843 4956.8 845.2C5043.7 847.3 5130.3 849.7 5217.2 852.7C5304 855.7 5391 859.3 5478 857.8C5565 856.3 5652 849.7 5739 844.2C5826 838.7 5913 834.3 5956.5 832.2L6000 830L6000 901L5956.5 901C5913 901 5826 901 5739 901C5652 901 5565 901 5478 901C5391 901 5304 901 5217.2 901C5130.3 901 5043.7 901 4956.8 901C4870 901 4783 901 4696 901C4609 901 4522 901 4435 901C4348 901 4261 901 4174 901C4087 901 4000 901 3913 901C3826 901 3739 901 3652 901C3565 901 3478 901 3391 901C3304 901 3217 901 3130.2 901C3043.3 901 2956.7 901 2869.8 901C2783 901 2696 901 2609 901C2522 901 2435 901 2348 901C2261 901 2174 901 2087 901C2000 901 1913 901 1826 901C1739 901 1652 901 1565 901C1478 901 1391 901 1304 901C1217 901 1130 901 1043.2 901C956.3 901 869.7 901 782.8 901C696 901 609 901 522 901C435 901 348 901 261 901C174 901 87 901 43.5 901L0 901Z" fill="#974d7e"></path><path d="M0 841L43.5 841.8C87 842.7 174 844.3 261 847.2C348 850 435 854 522 856C609 858 696 858 782.8 855.3C869.7 852.7 956.3 847.3 1043.2 847.2C1130 847 1217 852 1304 857C1391 862 1478 867 1565 867C1652 867 1739 862 1826 858.2C1913 854.3 2000 851.7 2087 851.5C2174 851.3 2261 853.7 2348 856.3C2435 859 2522 862 2609 863.8C2696 865.7 2783 866.3 2869.8 863.7C2956.7 861 3043.3 855 3130.2 850.7C3217 846.3 3304 843.7 3391 847.2C3478 850.7 3565 860.3 3652 864.7C3739 869 3826 868 3913 867C4000 866 4087 865 4174 861.5C4261 858 4348 852 4435 851.2C4522 850.3 4609 854.7 4696 857.2C4783 859.7 4870 860.3 4956.8 857.7C5043.7 855 5130.3 849 5217.2 850C5304 851 5391 859 5478 862.8C5565 866.7 5652 866.3 5739 864.5C5826 862.7 5913 859.3 5956.5 857.7L6000 856L6000 901L5956.5 901C5913 901 5826 901 5739 901C5652 901 5565 901 5478 901C5391 901 5304 901 5217.2 901C5130.3 901 5043.7 901 4956.8 901C4870 901 4783 901 4696 901C4609 901 4522 901 4435 901C4348 901 4261 901 4174 901C4087 901 4000 901 3913 901C3826 901 3739 901 3652 901C3565 901 3478 901 3391 901C3304 901 3217 901 3130.2 901C3043.3 901 2956.7 901 2869.8 901C2783 901 2696 901 2609 901C2522 901 2435 901 2348 901C2261 901 2174 901 2087 901C2000 901 1913 901 1826 901C1739 901 1652 901 1565 901C1478 901 1391 901 1304 901C1217 901 1130 901 1043.2 901C956.3 901 869.7 901 782.8 901C696 901 609 901 522 901C435 901 348 901 261 901C174 901 87 901 43.5 901L0 901Z" fill="#784979"></path><path d="M0 874L43.5 870.7C87 867.3 174 860.7 261 857.7C348 854.7 435 855.3 522 856.5C609 857.7 696 859.3 782.8 859.2C869.7 859 956.3 857 1043.2 857.3C1130 857.7 1217 860.3 1304 862.2C1391 864 1478 865 1565 867.7C1652 870.3 1739 874.7 1826 876.3C1913 878 2000 877 2087 874.8C2174 872.7 2261 869.3 2348 866.5C2435 863.7 2522 861.3 2609 861.5C2696 861.7 2783 864.3 2869.8 864.5C2956.7 864.7 3043.3 862.3 3130.2 860.5C3217 858.7 3304 857.3 3391 860.2C3478 863 3565 870 3652 869.7C3739 869.3 3826 861.7 3913 858.8C4000 856 4087 858 4174 858.2C4261 858.3 4348 856.7 4435 856.7C4522 856.7 4609 858.3 4696 861C4783 863.7 4870 867.3 4956.8 867.3C5043.7 867.3 5130.3 863.7 5217.2 865C5304 866.3 5391 872.7 5478 872.7C5565 872.7 5652 866.3 5739 862C5826 857.7 5913 855.3 5956.5 854.2L6000 853L6000 901L5956.5 901C5913 901 5826 901 5739 901C5652 901 5565 901 5478 901C5391 901 5304 901 5217.2 901C5130.3 901 5043.7 901 4956.8 901C4870 901 4783 901 4696 901C4609 901 4522 901 4435 901C4348 901 4261 901 4174 901C4087 901 4000 901 3913 901C3826 901 3739 901 3652 901C3565 901 3478 901 3391 901C3304 901 3217 901 3130.2 901C3043.3 901 2956.7 901 2869.8 901C2783 901 2696 901 2609 901C2522 901 2435 901 2348 901C2261 901 2174 901 2087 901C2000 901 1913 901 1826 901C1739 901 1652 901 1565 901C1478 901 1391 901 1304 901C1217 901 1130 901 1043.2 901C956.3 901 869.7 901 782.8 901C696 901 609 901 522 901C435 901 348 901 261 901C174 901 87 901 43.5 901L0 901Z" fill="#5a456f"></path><path d="M0 874L43.5 873.2C87 872.3 174 870.7 261 870.2C348 869.7 435 870.3 522 872.5C609 874.7 696 878.3 782.8 877.5C869.7 876.7 956.3 871.3 1043.2 870.3C1130 869.3 1217 872.7 1304 874.2C1391 875.7 1478 875.3 1565 875.5C1652 875.7 1739 876.3 1826 876.3C1913 876.3 2000 875.7 2087 876.8C2174 878 2261 881 2348 880.7C2435 880.3 2522 876.7 2609 875.5C2696 874.3 2783 875.7 2869.8 876.5C2956.7 877.3 3043.3 877.7 3130.2 877.3C3217 877 3304 876 3391 874.2C3478 872.3 3565 869.7 3652 871.3C3739 873 3826 879 3913 880.5C4000 882 4087 879 4174 878.8C4261 878.7 4348 881.3 4435 881C4522 880.7 4609 877.3 4696 876.7C4783 876 4870 878 4956.8 878.2C5043.7 878.3 5130.3 876.7 5217.2 875.2C5304 873.7 5391 872.3 5478 871.2C5565 870 5652 869 5739 871.2C5826 873.3 5913 878.7 5956.5 881.3L6000 884L6000 901L5956.5 901C5913 901 5826 901 5739 901C5652 901 5565 901 5478 901C5391 901 5304 901 5217.2 901C5130.3 901 5043.7 901 4956.8 901C4870 901 4783 901 4696 901C4609 901 4522 901 4435 901C4348 901 4261 901 4174 901C4087 901 4000 901 3913 901C3826 901 3739 901 3652 901C3565 901 3478 901 3391 901C3304 901 3217 901 3130.2 901C3043.3 901 2956.7 901 2869.8 901C2783 901 2696 901 2609 901C2522 901 2435 901 2348 901C2261 901 2174 901 2087 901C2000 901 1913 901 1826 901C1739 901 1652 901 1565 901C1478 901 1391 901 1304 901C1217 901 1130 901 1043.2 901C956.3 901 869.7 901 782.8 901C696 901 609 901 522 901C435 901 348 901 261 901C174 901 87 901 43.5 901L0 901Z" fill="#413e60"></path><path d="M0 879L43.5 879.2C87 879.3 174 879.7 261 881.2C348 882.7 435 885.3 522 887.5C609 889.7 696 891.3 782.8 890.7C869.7 890 956.3 887 1043.2 886.8C1130 886.7 1217 889.3 1304 890.2C1391 891 1478 890 1565 888C1652 886 1739 883 1826 882.2C1913 881.3 2000 882.7 2087 882.5C2174 882.3 2261 880.7 2348 881C2435 881.3 2522 883.7 2609 884.7C2696 885.7 2783 885.3 2869.8 885.7C2956.7 886 3043.3 887 3130.2 885.8C3217 884.7 3304 881.3 3391 882C3478 882.7 3565 887.3 3652 889.3C3739 891.3 3826 890.7 3913 890.8C4000 891 4087 892 4174 892C4261 892 4348 891 4435 888.5C4522 886 4609 882 4696 882.2C4783 882.3 4870 886.7 4956.8 889C5043.7 891.3 5130.3 891.7 5217.2 889.7C5304 887.7 5391 883.3 5478 882.7C5565 882 5652 885 5739 884.8C5826 884.7 5913 881.3 5956.5 879.7L6000 878L6000 901L5956.5 901C5913 901 5826 901 5739 901C5652 901 5565 901 5478 901C5391 901 5304 901 5217.2 901C5130.3 901 5043.7 901 4956.8 901C4870 901 4783 901 4696 901C4609 901 4522 901 4435 901C4348 901 4261 901 4174 901C4087 901 4000 901 3913 901C3826 901 3739 901 3652 901C3565 901 3478 901 3391 901C3304 901 3217 901 3130.2 901C3043.3 901 2956.7 901 2869.8 901C2783 901 2696 901 2609 901C2522 901 2435 901 2348 901C2261 901 2174 901 2087 901C2000 901 1913 901 1826 901C1739 901 1652 901 1565 901C1478 901 1391 901 1304 901C1217 901 1130 901 1043.2 901C956.3 901 869.7 901 782.8 901C696 901 609 901 522 901C435 901 348 901 261 901C174 901 87 901 43.5 901L0 901Z" fill="#2e364d"></path></svg>