<svg id="visual" viewBox="0 0 6000 900" width="6000" height="900" xmlns="http://www.w3.org/2000/svg" xmlns:xlink="http://www.w3.org/1999/xlink" version="1.1"><path d="M0 843L43.5 838.2C87 833.3 174 823.7 261 822.5C348 821.3 435 828.7 522 826.2C609 823.7 696 811.3 782.8 804.3C869.7 797.3 956.3 795.7 1043.2 799.3C1130 803 1217 812 1304 815.8C1391 819.7 1478 818.3 1565 813C1652 807.7 1739 798.3 1826 795.5C1913 792.7 2000 796.3 2087 805.7C2174 815 2261 830 2348 833.2C2435 836.3 2522 827.7 2609 818.7C2696 809.7 2783 800.3 2869.8 800.5C2956.7 800.7 3043.3 810.3 3130.2 818.3C3217 826.3 3304 832.7 3391 835.5C3478 838.3 3565 837.7 3652 837.7C3739 837.7 3826 838.3 3913 837.2C4000 836 4087 833 4174 825.5C4261 818 4348 806 4435 807.8C4522 809.7 4609 825.3 4696 825.7C4783 826 4870 811 4956.8 802.3C5043.7 793.7 5130.3 791.3 5217.2 794C5304 796.7 5391 804.3 5478 807C5565 809.7 5652 807.3 5739 807.2C5826 807 5913 809 5956.5 810L6000 811L6000 901L5956.5 901C5913 901 5826 901 5739 901C5652 901 5565 901 5478 901C5391 901 5304 901 5217.2 901C5130.3 901 5043.7 901 4956.8 901C4870 901 4783 901 4696 901C4609 901 4522 901 4435 901C4348 901 4261 901 4174 901C4087 901 4000 901 3913 901C3826 901 3739 901 3652 901C3565 901 3478 901 3391 901C3304 901 3217 901 3130.2 901C3043.3 901 2956.7 901 2869.8 901C2783 901 2696 901 2609 901C2522 901 2435 901 2348 901C2261 901 2174 901 2087 901C2000 901 1913 901 1826 901C1739 901 1652 901 1565 901C1478 901 1391 901 1304 901C1217 901 1130 901 1043.2 901C956.3 901 869.7 901 782.8 901C696 901 609 901 522 901C435 901 348 901 261 901C174 901 87 901 43.5 901L0 901Z" fill="#feb600"></path><path d="M0 815L43.5 816.8C87 818.7 174 822.3 261 823.7C348 825 435 824 522 821.7C609 819.3 696 815.7 782.8 816C869.7 816.3 956.3 820.7 1043.2 823.5C1130 826.3 1217 827.7 1304 825.8C1391 824 1478 819 1565 811.7C1652 804.3 1739 794.7 1826 792.2C1913 789.7 2000 794.3 2087 800.2C2174 806 2261 813 2348 814.5C2435 816 2522 812 2609 812C2696 812 2783 816 2869.8 819.3C2956.7 822.7 3043.3 825.3 3130.2 819.8C3217 814.3 3304 800.7 3391 799.8C3478 799 3565 811 3652 820.7C3739 830.3 3826 837.7 3913 838.5C4000 839.3 4087 833.7 4174 831.5C4261 829.3 4348 830.7 4435 823.5C4522 816.3 4609 800.7 4696 800.3C4783 800 4870 815 4956.8 817.2C5043.7 819.3 5130.3 808.7 5217.2 804.8C5304 801 5391 804 5478 808.8C5565 813.7 5652 820.3 5739 816.5C5826 812.7 5913 798.3 5956.5 791.2L6000 784L6000 901L5956.5 901C5913 901 5826 901 5739 901C5652 901 5565 901 5478 901C5391 901 5304 901 5217.2 901C5130.3 901 5043.7 901 4956.8 901C4870 901 4783 901 4696 901C4609 901 4522 901 4435 901C4348 901 4261 901 4174 901C4087 901 4000 901 3913 901C3826 901 3739 901 3652 901C3565 901 3478 901 3391 901C3304 901 3217 901 3130.2 901C3043.3 901 2956.7 901 2869.8 901C2783 901 2696 901 2609 901C2522 901 2435 901 2348 901C2261 901 2174 901 2087 901C2000 901 1913 901 1826 901C1739 901 1652 901 1565 901C1478 901 1391 901 1304 901C1217 901 1130 901 1043.2 901C956.3 901 869.7 901 782.8 901C696 901 609 901 522 901C435 901 348 901 261 901C174 901 87 901 43.5 901L0 901Z" fill="#ff9c2b"></path><path d="M0 817L43.5 813.5C87 810 174 803 261 807.3C348 811.7 435 827.3 522 828.2C609 829 696 815 782.8 811.2C869.7 807.3 956.3 813.7 1043.2 818.7C1130 823.7 1217 827.3 1304 826.5C1391 825.7 1478 820.3 1565 814.5C1652 808.7 1739 802.3 1826 801.7C1913 801 2000 806 2087 806.2C2174 806.3 2261 801.7 2348 803.5C2435 805.3 2522 813.7 2609 813.2C2696 812.7 2783 803.3 2869.8 799C2956.7 794.7 3043.3 795.3 3130.2 800.8C3217 806.3 3304 816.7 3391 820.8C3478 825 3565 823 3652 817.5C3739 812 3826 803 3913 807.2C4000 811.3 4087 828.7 4174 833.3C4261 838 4348 830 4435 828.3C4522 826.7 4609 831.3 4696 827.5C4783 823.7 4870 811.3 4956.8 807.8C5043.7 804.3 5130.3 809.7 5217.2 815.8C5304 822 5391 829 5478 831.8C5565 834.7 5652 833.3 5739 830.5C5826 827.7 5913 823.3 5956.5 821.2L6000 819L6000 901L5956.5 901C5913 901 5826 901 5739 901C5652 901 5565 901 5478 901C5391 901 5304 901 5217.2 901C5130.3 901 5043.7 901 4956.8 901C4870 901 4783 901 4696 901C4609 901 4522 901 4435 901C4348 901 4261 901 4174 901C4087 901 4000 901 3913 901C3826 901 3739 901 3652 901C3565 901 3478 901 3391 901C3304 901 3217 901 3130.2 901C3043.3 901 2956.7 901 2869.8 901C2783 901 2696 901 2609 901C2522 901 2435 901 2348 901C2261 901 2174 901 2087 901C2000 901 1913 901 1826 901C1739 901 1652 901 1565 901C1478 901 1391 901 1304 901C1217 901 1130 901 1043.2 901C956.3 901 869.7 901 782.8 901C696 901 609 901 522 901C435 901 348 901 261 901C174 901 87 901 43.5 901L0 901Z" fill="#ff8344"></path><path d="M0 854L43.5 853.7C87 853.3 174 852.7 261 845.5C348 838.3 435 824.7 522 817.3C609 810 696 809 782.8 807.7C869.7 806.3 956.3 804.7 1043.2 805.2C1130 805.7 1217 808.3 1304 815.7C1391 823 1478 835 1565 837.2C1652 839.3 1739 831.7 1826 826.8C1913 822 2000 820 2087 824.3C2174 828.7 2261 839.3 2348 844.8C2435 850.3 2522 850.7 2609 843.2C2696 835.7 2783 820.3 2869.8 821.2C2956.7 822 3043.3 839 3130.2 845.7C3217 852.3 3304 848.7 3391 846.8C3478 845 3565 845 3652 844.8C3739 844.7 3826 844.3 3913 843C4000 841.7 4087 839.3 4174 835.7C4261 832 4348 827 4435 825C4522 823 4609 824 4696 825.7C4783 827.3 4870 829.7 4956.8 829.7C5043.7 829.7 5130.3 827.3 5217.2 830.3C5304 833.3 5391 841.7 5478 840.2C5565 838.7 5652 827.3 5739 823.8C5826 820.3 5913 824.7 5956.5 826.8L6000 829L6000 901L5956.5 901C5913 901 5826 901 5739 901C5652 901 5565 901 5478 901C5391 901 5304 901 5217.2 901C5130.3 901 5043.7 901 4956.8 901C4870 901 4783 901 4696 901C4609 901 4522 901 4435 901C4348 901 4261 901 4174 901C4087 901 4000 901 3913 901C3826 901 3739 901 3652 901C3565 901 3478 901 3391 901C3304 901 3217 901 3130.2 901C3043.3 901 2956.7 901 2869.8 901C2783 901 2696 901 2609 901C2522 901 2435 901 2348 901C2261 901 2174 901 2087 901C2000 901 1913 901 1826 901C1739 901 1652 901 1565 901C1478 901 1391 901 1304 901C1217 901 1130 901 1043.2 901C956.3 901 869.7 901 782.8 901C696 901 609 901 522 901C435 901 348 901 261 901C174 901 87 901 43.5 901L0 901Z" fill="#f96f58"></path><path d="M0 859L43.5 853.2C87 847.3 174 835.7 261 834.2C348 832.7 435 841.3 522 846.3C609 851.3 696 852.7 782.8 853.3C869.7 854 956.3 854 1043.2 853C1130 852 1217 850 1304 844.7C1391 839.3 1478 830.7 1565 825C1652 819.3 1739 816.7 1826 821.3C1913 826 2000 838 2087 842.3C2174 846.7 2261 843.3 2348 840.8C2435 838.3 2522 836.7 2609 837.8C2696 839 2783 843 2869.8 842.8C2956.7 842.7 3043.3 838.3 3130.2 834.7C3217 831 3304 828 3391 824.7C3478 821.3 3565 817.7 3652 820C3739 822.3 3826 830.7 3913 831.7C4000 832.7 4087 826.3 4174 826C4261 825.7 4348 831.3 4435 835C4522 838.7 4609 840.3 4696 839.8C4783 839.3 4870 836.7 4956.8 836.8C5043.7 837 5130.3 840 5217.2 842.3C5304 844.7 5391 846.3 5478 846.2C5565 846 5652 844 5739 844.7C5826 845.3 5913 848.7 5956.5 850.3L6000 852L6000 901L5956.5 901C5913 901 5826 901 5739 901C5652 901 5565 901 5478 901C5391 901 5304 901 5217.2 901C5130.3 901 5043.7 901 4956.8 901C4870 901 4783 901 4696 901C4609 901 4522 901 4435 901C4348 901 4261 901 4174 901C4087 901 4000 901 3913 901C3826 901 3739 901 3652 901C3565 901 3478 901 3391 901C3304 901 3217 901 3130.2 901C3043.3 901 2956.7 901 2869.8 901C2783 901 2696 901 2609 901C2522 901 2435 901 2348 901C2261 901 2174 901 2087 901C2000 901 1913 901 1826 901C1739 901 1652 901 1565 901C1478 901 1391 901 1304 901C1217 901 1130 901 1043.2 901C956.3 901 869.7 901 782.8 901C696 901 609 901 522 901C435 901 348 901 261 901C174 901 87 901 43.5 901L0 901Z" fill="#e95f68"></path><path d="M0 826L43.5 831C87 836 174 846 261 850.3C348 854.7 435 853.3 522 851C609 848.7 696 845.3 782.8 844.7C869.7 844 956.3 846 1043.2 843.3C1130 840.7 1217 833.3 1304 836C1391 838.7 1478 851.3 1565 854.5C1652 857.7 1739 851.3 1826 847.8C1913 844.3 2000 843.7 2087 842C2174 840.3 2261 837.7 2348 835.3C2435 833 2522 831 2609 829.3C2696 827.7 2783 826.3 2869.8 827.5C2956.7 828.7 3043.3 832.3 3130.2 837.7C3217 843 3304 850 3391 849.7C3478 849.3 3565 841.7 3652 836.3C3739 831 3826 828 3913 828.8C4000 829.7 4087 834.3 4174 838.5C4261 842.7 4348 846.3 4435 850.5C4522 854.7 4609 859.3 4696 855.7C4783 852 4870 840 4956.8 838.7C5043.7 837.3 5130.3 846.7 5217.2 848.2C5304 849.7 5391 843.3 5478 842.2C5565 841 5652 845 5739 846.8C5826 848.7 5913 848.3 5956.5 848.2L6000 848L6000 901L5956.5 901C5913 901 5826 901 5739 901C5652 901 5565 901 5478 901C5391 901 5304 901 5217.2 901C5130.3 901 5043.7 901 4956.8 901C4870 901 4783 901 4696 901C4609 901 4522 901 4435 901C4348 901 4261 901 4174 901C4087 901 4000 901 3913 901C3826 901 3739 901 3652 901C3565 901 3478 901 3391 901C3304 901 3217 901 3130.2 901C3043.3 901 2956.7 901 2869.8 901C2783 901 2696 901 2609 901C2522 901 2435 901 2348 901C2261 901 2174 901 2087 901C2000 901 1913 901 1826 901C1739 901 1652 901 1565 901C1478 901 1391 901 1304 901C1217 901 1130 901 1043.2 901C956.3 901 869.7 901 782.8 901C696 901 609 901 522 901C435 901 348 901 261 901C174 901 87 901 43.5 901L0 901Z" fill="#d15575"></path><path d="M0 843L43.5 842.8C87 842.7 174 842.3 261 846C348 849.7 435 857.3 522 859.7C609 862 696 859 782.8 856.8C869.7 854.7 956.3 853.3 1043.2 852C1130 850.7 1217 849.3 1304 849.5C1391 849.7 1478 851.3 1565 854.2C1652 857 1739 861 1826 861.8C1913 862.7 2000 860.3 2087 856.7C2174 853 2261 848 2348 849.8C2435 851.7 2522 860.3 2609 860.2C2696 860 2783 851 2869.8 851C2956.7 851 3043.3 860 3130.2 862.2C3217 864.3 3304 859.7 3391 855C3478 850.3 3565 845.7 3652 844.5C3739 843.3 3826 845.7 3913 846.8C4000 848 4087 848 4174 845.8C4261 843.7 4348 839.3 4435 842.5C4522 845.7 4609 856.3 4696 856.7C4783 857 4870 847 4956.8 844.8C5043.7 842.7 5130.3 848.3 5217.2 848C5304 847.7 5391 841.3 5478 843.7C5565 846 5652 857 5739 860.8C5826 864.7 5913 861.3 5956.5 859.7L6000 858L6000 901L5956.5 901C5913 901 5826 901 5739 901C5652 901 5565 901 5478 901C5391 901 5304 901 5217.2 901C5130.3 901 5043.7 901 4956.8 901C4870 901 4783 901 4696 901C4609 901 4522 901 4435 901C4348 901 4261 901 4174 901C4087 901 4000 901 3913 901C3826 901 3739 901 3652 901C3565 901 3478 901 3391 901C3304 901 3217 901 3130.2 901C3043.3 901 2956.7 901 2869.8 901C2783 901 2696 901 2609 901C2522 901 2435 901 2348 901C2261 901 2174 901 2087 901C2000 901 1913 901 1826 901C1739 901 1652 901 1565 901C1478 901 1391 901 1304 901C1217 901 1130 901 1043.2 901C956.3 901 869.7 901 782.8 901C696 901 609 901 522 901C435 901 348 901 261 901C174 901 87 901 43.5 901L0 901Z" fill="#b6507c"></path><path d="M0 848L43.5 850.3C87 852.7 174 857.3 261 857.3C348 857.3 435 852.7 522 853C609 853.3 696 858.7 782.8 858.8C869.7 859 956.3 854 1043.2 854.8C1130 855.7 1217 862.3 1304 861.5C1391 860.7 1478 852.3 1565 852.5C1652 852.7 1739 861.3 1826 861.3C1913 861.3 2000 852.7 2087 851.3C2174 850 2261 856 2348 856.7C2435 857.3 2522 852.7 2609 849.3C2696 846 2783 844 2869.8 846.5C2956.7 849 3043.3 856 3130.2 860C3217 864 3304 865 3391 865C3478 865 3565 864 3652 862.5C3739 861 3826 859 3913 856.5C4000 854 4087 851 4174 848.8C4261 846.7 4348 845.3 4435 849C4522 852.7 4609 861.3 4696 864.3C4783 867.3 4870 864.7 4956.8 865C5043.7 865.3 5130.3 868.7 5217.2 865.8C5304 863 5391 854 5478 853.2C5565 852.3 5652 859.7 5739 860.5C5826 861.3 5913 855.7 5956.5 852.8L6000 850L6000 901L5956.5 901C5913 901 5826 901 5739 901C5652 901 5565 901 5478 901C5391 901 5304 901 5217.2 901C5130.3 901 5043.7 901 4956.8 901C4870 901 4783 901 4696 901C4609 901 4522 901 4435 901C4348 901 4261 901 4174 901C4087 901 4000 901 3913 901C3826 901 3739 901 3652 901C3565 901 3478 901 3391 901C3304 901 3217 901 3130.2 901C3043.3 901 2956.7 901 2869.8 901C2783 901 2696 901 2609 901C2522 901 2435 901 2348 901C2261 901 2174 901 2087 901C2000 901 1913 901 1826 901C1739 901 1652 901 1565 901C1478 901 1391 901 1304 901C1217 901 1130 901 1043.2 901C956.3 901 869.7 901 782.8 901C696 901 609 901 522 901C435 901 348 901 261 901C174 901 87 901 43.5 901L0 901Z" fill="#974d7e"></path><path d="M0 870L43.5 870C87 870 174 870 261 869.8C348 869.7 435 869.3 522 866.8C609 864.3 696 859.7 782.8 857.7C869.7 855.7 956.3 856.3 1043.2 856.8C1130 857.3 1217 857.7 1304 859.8C1391 862 1478 866 1565 865.3C1652 864.7 1739 859.3 1826 858.5C1913 857.7 2000 861.3 2087 861.5C2174 861.7 2261 858.3 2348 859.5C2435 860.7 2522 866.3 2609 869.3C2696 872.3 2783 872.7 2869.8 870.5C2956.7 868.3 3043.3 863.7 3130.2 863.5C3217 863.3 3304 867.7 3391 869.2C3478 870.7 3565 869.3 3652 869.8C3739 870.3 3826 872.7 3913 872.2C4000 871.7 4087 868.3 4174 867C4261 865.7 4348 866.3 4435 865.5C4522 864.7 4609 862.3 4696 861.2C4783 860 4870 860 4956.8 858.7C5043.7 857.3 5130.3 854.7 5217.2 856.7C5304 858.7 5391 865.3 5478 867.8C5565 870.3 5652 868.7 5739 867.2C5826 865.7 5913 864.3 5956.5 863.7L6000 863L6000 901L5956.5 901C5913 901 5826 901 5739 901C5652 901 5565 901 5478 901C5391 901 5304 901 5217.2 901C5130.3 901 5043.7 901 4956.8 901C4870 901 4783 901 4696 901C4609 901 4522 901 4435 901C4348 901 4261 901 4174 901C4087 901 4000 901 3913 901C3826 901 3739 901 3652 901C3565 901 3478 901 3391 901C3304 901 3217 901 3130.2 901C3043.3 901 2956.7 901 2869.8 901C2783 901 2696 901 2609 901C2522 901 2435 901 2348 901C2261 901 2174 901 2087 901C2000 901 1913 901 1826 901C1739 901 1652 901 1565 901C1478 901 1391 901 1304 901C1217 901 1130 901 1043.2 901C956.3 901 869.7 901 782.8 901C696 901 609 901 522 901C435 901 348 901 261 901C174 901 87 901 43.5 901L0 901Z" fill="#784979"></path><path d="M0 873L43.5 872C87 871 174 869 261 870.2C348 871.3 435 875.7 522 874.7C609 873.7 696 867.3 782.8 867C869.7 866.7 956.3 872.3 1043.2 875.5C1130 878.7 1217 879.3 1304 879.2C1391 879 1478 878 1565 875.3C1652 872.7 1739 868.3 1826 869.2C1913 870 2000 876 2087 878C2174 880 2261 878 2348 875.3C2435 872.7 2522 869.3 2609 867.8C2696 866.3 2783 866.7 2869.8 865.8C2956.7 865 3043.3 863 3130.2 862.7C3217 862.3 3304 863.7 3391 864.8C3478 866 3565 867 3652 867.2C3739 867.3 3826 866.7 3913 865.7C4000 864.7 4087 863.3 4174 862.5C4261 861.7 4348 861.3 4435 864C4522 866.7 4609 872.3 4696 872.5C4783 872.7 4870 867.3 4956.8 865.3C5043.7 863.3 5130.3 864.7 5217.2 864.8C5304 865 5391 864 5478 865.8C5565 867.7 5652 872.3 5739 874C5826 875.7 5913 874.3 5956.5 873.7L6000 873L6000 901L5956.5 901C5913 901 5826 901 5739 901C5652 901 5565 901 5478 901C5391 901 5304 901 5217.2 901C5130.3 901 5043.7 901 4956.8 901C4870 901 4783 901 4696 901C4609 901 4522 901 4435 901C4348 901 4261 901 4174 901C4087 901 4000 901 3913 901C3826 901 3739 901 3652 901C3565 901 3478 901 3391 901C3304 901 3217 901 3130.2 901C3043.3 901 2956.7 901 2869.8 901C2783 901 2696 901 2609 901C2522 901 2435 901 2348 901C2261 901 2174 901 2087 901C2000 901 1913 901 1826 901C1739 901 1652 901 1565 901C1478 901 1391 901 1304 901C1217 901 1130 901 1043.2 901C956.3 901 869.7 901 782.8 901C696 901 609 901 522 901C435 901 348 901 261 901C174 901 87 901 43.5 901L0 901Z" fill="#5a456f"></path><path d="M0 877L43.5 876.7C87 876.3 174 875.7 261 876.2C348 876.7 435 878.3 522 880.2C609 882 696 884 782.8 883.2C869.7 882.3 956.3 878.7 1043.2 877.8C1130 877 1217 879 1304 879C1391 879 1478 877 1565 875.7C1652 874.3 1739 873.7 1826 873.3C1913 873 2000 873 2087 874C2174 875 2261 877 2348 877.2C2435 877.3 2522 875.7 2609 876.3C2696 877 2783 880 2869.8 880.3C2956.7 880.7 3043.3 878.3 3130.2 877.2C3217 876 3304 876 3391 877.3C3478 878.7 3565 881.3 3652 882.8C3739 884.3 3826 884.7 3913 883.8C4000 883 4087 881 4174 880.5C4261 880 4348 881 4435 881.2C4522 881.3 4609 880.7 4696 879.5C4783 878.3 4870 876.7 4956.8 876.7C5043.7 876.7 5130.3 878.3 5217.2 880.2C5304 882 5391 884 5478 884.8C5565 885.7 5652 885.3 5739 882.7C5826 880 5913 875 5956.5 872.5L6000 870L6000 901L5956.5 901C5913 901 5826 901 5739 901C5652 901 5565 901 5478 901C5391 901 5304 901 5217.2 901C5130.3 901 5043.7 901 4956.8 901C4870 901 4783 901 4696 901C4609 901 4522 901 4435 901C4348 901 4261 901 4174 901C4087 901 4000 901 3913 901C3826 901 3739 901 3652 901C3565 901 3478 901 3391 901C3304 901 3217 901 3130.2 901C3043.3 901 2956.7 901 2869.8 901C2783 901 2696 901 2609 901C2522 901 2435 901 2348 901C2261 901 2174 901 2087 901C2000 901 1913 901 1826 901C1739 901 1652 901 1565 901C1478 901 1391 901 1304 901C1217 901 1130 901 1043.2 901C956.3 901 869.7 901 782.8 901C696 901 609 901 522 901C435 901 348 901 261 901C174 901 87 901 43.5 901L0 901Z" fill="#413e60"></path><path d="M0 889L43.5 888.8C87 888.7 174 888.3 261 888.2C348 888 435 888 522 887.7C609 887.3 696 886.7 782.8 885.5C869.7 884.3 956.3 882.7 1043.2 882.8C1130 883 1217 885 1304 885.3C1391 885.7 1478 884.3 1565 884C1652 883.7 1739 884.3 1826 884.7C1913 885 2000 885 2087 884.7C2174 884.3 2261 883.7 2348 883.8C2435 884 2522 885 2609 886C2696 887 2783 888 2869.8 888C2956.7 888 3043.3 887 3130.2 886.7C3217 886.3 3304 886.7 3391 886.3C3478 886 3565 885 3652 885C3739 885 3826 886 3913 885.5C4000 885 4087 883 4174 882.2C4261 881.3 4348 881.7 4435 882.8C4522 884 4609 886 4696 887.3C4783 888.7 4870 889.3 4956.8 889C5043.7 888.7 5130.3 887.3 5217.2 885.7C5304 884 5391 882 5478 881.5C5565 881 5652 882 5739 883.2C5826 884.3 5913 885.7 5956.5 886.3L6000 887L6000 901L5956.5 901C5913 901 5826 901 5739 901C5652 901 5565 901 5478 901C5391 901 5304 901 5217.2 901C5130.3 901 5043.7 901 4956.8 901C4870 901 4783 901 4696 901C4609 901 4522 901 4435 901C4348 901 4261 901 4174 901C4087 901 4000 901 3913 901C3826 901 3739 901 3652 901C3565 901 3478 901 3391 901C3304 901 3217 901 3130.2 901C3043.3 901 2956.7 901 2869.8 901C2783 901 2696 901 2609 901C2522 901 2435 901 2348 901C2261 901 2174 901 2087 901C2000 901 1913 901 1826 901C1739 901 1652 901 1565 901C1478 901 1391 901 1304 901C1217 901 1130 901 1043.2 901C956.3 901 869.7 901 782.8 901C696 901 609 901 522 901C435 901 348 901 261 901C174 901 87 901 43.5 901L0 901Z" fill="#2e364d"></path></svg>