<svg id="visual" viewBox="0 0 960 540" width="960" height="540" xmlns="http://www.w3.org/2000/svg" xmlns:xlink="http://www.w3.org/1999/xlink" version="1.1"><path d="M0 471L11.5 468.3C23 465.7 46 460.3 68.8 459.3C91.7 458.3 114.3 461.7 137.2 463.5C160 465.3 183 465.7 205.8 467.5C228.7 469.3 251.3 472.7 274.2 471.7C297 470.7 320 465.3 342.8 463.5C365.7 461.7 388.3 463.3 411.2 462.2C434 461 457 457 480 458.7C503 460.3 526 467.7 548.8 470.3C571.7 473 594.3 471 617.2 467C640 463 663 457 685.8 454.3C708.7 451.7 731.3 452.3 754.2 455.8C777 459.3 800 465.7 822.8 466.5C845.7 467.3 868.3 462.7 891.2 461.3C914 460 937 462 948.5 463L960 464L960 541L948.5 541C937 541 914 541 891.2 541C868.3 541 845.7 541 822.8 541C800 541 777 541 754.2 541C731.3 541 708.7 541 685.8 541C663 541 640 541 617.2 541C594.3 541 571.7 541 548.8 541C526 541 503 541 480 541C457 541 434 541 411.2 541C388.3 541 365.7 541 342.8 541C320 541 297 541 274.2 541C251.3 541 228.7 541 205.8 541C183 541 160 541 137.2 541C114.3 541 91.7 541 68.8 541C46 541 23 541 11.5 541L0 541Z" fill="#feb600"></path><path d="M0 473L11.5 473.7C23 474.3 46 475.7 68.8 476.8C91.7 478 114.3 479 137.2 476.7C160 474.3 183 468.7 205.8 468C228.7 467.3 251.3 471.7 274.2 474C297 476.3 320 476.7 342.8 476.5C365.7 476.3 388.3 475.7 411.2 472.5C434 469.3 457 463.7 480 462C503 460.3 526 462.7 548.8 467C571.7 471.3 594.3 477.7 617.2 478C640 478.3 663 472.7 685.8 471.5C708.7 470.3 731.3 473.7 754.2 475.3C777 477 800 477 822.8 474.7C845.7 472.3 868.3 467.7 891.2 468C914 468.3 937 473.7 948.5 476.3L960 479L960 541L948.5 541C937 541 914 541 891.2 541C868.3 541 845.7 541 822.8 541C800 541 777 541 754.2 541C731.3 541 708.7 541 685.8 541C663 541 640 541 617.2 541C594.3 541 571.7 541 548.8 541C526 541 503 541 480 541C457 541 434 541 411.2 541C388.3 541 365.7 541 342.8 541C320 541 297 541 274.2 541C251.3 541 228.7 541 205.8 541C183 541 160 541 137.2 541C114.3 541 91.7 541 68.8 541C46 541 23 541 11.5 541L0 541Z" fill="#ff9c2b"></path><path d="M0 481L11.5 482.8C23 484.7 46 488.3 68.8 487.5C91.7 486.7 114.3 481.3 137.2 479.5C160 477.7 183 479.3 205.8 481.8C228.7 484.3 251.3 487.7 274.2 488.7C297 489.7 320 488.3 342.8 484.7C365.7 481 388.3 475 411.2 474.2C434 473.3 457 477.7 480 481.3C503 485 526 488 548.8 486.3C571.7 484.7 594.3 478.3 617.2 475.2C640 472 663 472 685.8 475.5C708.7 479 731.3 486 754.2 489.3C777 492.7 800 492.3 822.8 491.5C845.7 490.7 868.3 489.3 891.2 487.8C914 486.3 937 484.7 948.5 483.8L960 483L960 541L948.5 541C937 541 914 541 891.2 541C868.3 541 845.7 541 822.8 541C800 541 777 541 754.2 541C731.3 541 708.7 541 685.8 541C663 541 640 541 617.2 541C594.3 541 571.7 541 548.8 541C526 541 503 541 480 541C457 541 434 541 411.2 541C388.3 541 365.7 541 342.8 541C320 541 297 541 274.2 541C251.3 541 228.7 541 205.8 541C183 541 160 541 137.2 541C114.3 541 91.7 541 68.8 541C46 541 23 541 11.5 541L0 541Z" fill="#ff8344"></path><path d="M0 476L11.5 477.8C23 479.7 46 483.3 68.8 485.5C91.7 487.7 114.3 488.3 137.2 485.8C160 483.3 183 477.7 205.8 478C228.7 478.3 251.3 484.7 274.2 484.5C297 484.3 320 477.7 342.8 478.3C365.7 479 388.3 487 411.2 487.2C434 487.3 457 479.7 480 479.2C503 478.7 526 485.3 548.8 488.7C571.7 492 594.3 492 617.2 488.8C640 485.7 663 479.3 685.8 477.2C708.7 475 731.3 477 754.2 478C777 479 800 479 822.8 479.8C845.7 480.7 868.3 482.3 891.2 484.8C914 487.3 937 490.7 948.5 492.3L960 494L960 541L948.5 541C937 541 914 541 891.2 541C868.3 541 845.7 541 822.8 541C800 541 777 541 754.2 541C731.3 541 708.7 541 685.8 541C663 541 640 541 617.2 541C594.3 541 571.7 541 548.8 541C526 541 503 541 480 541C457 541 434 541 411.2 541C388.3 541 365.7 541 342.8 541C320 541 297 541 274.2 541C251.3 541 228.7 541 205.8 541C183 541 160 541 137.2 541C114.3 541 91.7 541 68.8 541C46 541 23 541 11.5 541L0 541Z" fill="#f96f58"></path><path d="M0 480L11.5 483.5C23 487 46 494 68.8 497C91.7 500 114.3 499 137.2 499.2C160 499.3 183 500.7 205.8 501.2C228.7 501.7 251.3 501.3 274.2 501C297 500.7 320 500.3 342.8 496.8C365.7 493.3 388.3 486.7 411.2 487C434 487.3 457 494.7 480 494.8C503 495 526 488 548.8 486.5C571.7 485 594.3 489 617.2 490.3C640 491.7 663 490.3 685.8 490C708.7 489.7 731.3 490.3 754.2 490.3C777 490.3 800 489.7 822.8 490.8C845.7 492 868.3 495 891.2 496C914 497 937 496 948.5 495.5L960 495L960 541L948.5 541C937 541 914 541 891.2 541C868.3 541 845.7 541 822.8 541C800 541 777 541 754.2 541C731.3 541 708.7 541 685.8 541C663 541 640 541 617.2 541C594.3 541 571.7 541 548.8 541C526 541 503 541 480 541C457 541 434 541 411.2 541C388.3 541 365.7 541 342.8 541C320 541 297 541 274.2 541C251.3 541 228.7 541 205.8 541C183 541 160 541 137.2 541C114.3 541 91.7 541 68.8 541C46 541 23 541 11.5 541L0 541Z" fill="#e95f68"></path><path d="M0 507L11.5 506C23 505 46 503 68.8 501C91.7 499 114.3 497 137.2 495.7C160 494.3 183 493.7 205.8 492.3C228.7 491 251.3 489 274.2 491.2C297 493.3 320 499.7 342.8 502.3C365.7 505 388.3 504 411.2 502.8C434 501.7 457 500.3 480 498.5C503 496.7 526 494.3 548.8 492.3C571.7 490.3 594.3 488.7 617.2 489.7C640 490.7 663 494.3 685.8 497C708.7 499.7 731.3 501.3 754.2 500.7C777 500 800 497 822.8 496.3C845.7 495.7 868.3 497.3 891.2 497.8C914 498.3 937 497.7 948.5 497.3L960 497L960 541L948.5 541C937 541 914 541 891.2 541C868.3 541 845.7 541 822.8 541C800 541 777 541 754.2 541C731.3 541 708.7 541 685.8 541C663 541 640 541 617.2 541C594.3 541 571.7 541 548.8 541C526 541 503 541 480 541C457 541 434 541 411.2 541C388.3 541 365.7 541 342.8 541C320 541 297 541 274.2 541C251.3 541 228.7 541 205.8 541C183 541 160 541 137.2 541C114.3 541 91.7 541 68.8 541C46 541 23 541 11.5 541L0 541Z" fill="#d15575"></path><path d="M0 509L11.5 508.2C23 507.3 46 505.7 68.8 505.7C91.7 505.7 114.3 507.3 137.2 506.3C160 505.3 183 501.7 205.8 499C228.7 496.3 251.3 494.7 274.2 496.7C297 498.7 320 504.3 342.8 506C365.7 507.7 388.3 505.3 411.2 502.7C434 500 457 497 480 497C503 497 526 500 548.8 502.2C571.7 504.3 594.3 505.7 617.2 505.7C640 505.7 663 504.3 685.8 502C708.7 499.7 731.3 496.3 754.2 495.7C777 495 800 497 822.8 498.2C845.7 499.3 868.3 499.7 891.2 500C914 500.3 937 500.7 948.5 500.8L960 501L960 541L948.5 541C937 541 914 541 891.2 541C868.3 541 845.7 541 822.8 541C800 541 777 541 754.2 541C731.3 541 708.7 541 685.8 541C663 541 640 541 617.2 541C594.3 541 571.7 541 548.8 541C526 541 503 541 480 541C457 541 434 541 411.2 541C388.3 541 365.7 541 342.8 541C320 541 297 541 274.2 541C251.3 541 228.7 541 205.8 541C183 541 160 541 137.2 541C114.3 541 91.7 541 68.8 541C46 541 23 541 11.5 541L0 541Z" fill="#b6507c"></path><path d="M0 514L11.5 514C23 514 46 514 68.8 512.7C91.7 511.3 114.3 508.7 137.2 506.5C160 504.3 183 502.7 205.8 502.2C228.7 501.7 251.3 502.3 274.2 503C297 503.7 320 504.3 342.8 503.8C365.7 503.3 388.3 501.7 411.2 501.8C434 502 457 504 480 506.7C503 509.3 526 512.7 548.8 511.8C571.7 511 594.3 506 617.2 503C640 500 663 499 685.8 501.3C708.7 503.7 731.3 509.3 754.2 510.5C777 511.7 800 508.3 822.8 506.5C845.7 504.7 868.3 504.3 891.2 503.2C914 502 937 500 948.5 499L960 498L960 541L948.5 541C937 541 914 541 891.2 541C868.3 541 845.7 541 822.8 541C800 541 777 541 754.2 541C731.3 541 708.7 541 685.8 541C663 541 640 541 617.2 541C594.3 541 571.7 541 548.8 541C526 541 503 541 480 541C457 541 434 541 411.2 541C388.3 541 365.7 541 342.8 541C320 541 297 541 274.2 541C251.3 541 228.7 541 205.8 541C183 541 160 541 137.2 541C114.3 541 91.7 541 68.8 541C46 541 23 541 11.5 541L0 541Z" fill="#974d7e"></path><path d="M0 511L11.5 511.7C23 512.3 46 513.7 68.8 514.5C91.7 515.3 114.3 515.7 137.2 515.5C160 515.3 183 514.7 205.8 514.3C228.7 514 251.3 514 274.2 513.7C297 513.3 320 512.7 342.8 512.2C365.7 511.7 388.3 511.3 411.2 512.3C434 513.3 457 515.7 480 516.5C503 517.3 526 516.7 548.8 514.8C571.7 513 594.3 510 617.2 508.3C640 506.7 663 506.3 685.8 506C708.7 505.7 731.3 505.3 754.2 506.5C777 507.7 800 510.3 822.8 510.7C845.7 511 868.3 509 891.2 507.8C914 506.7 937 506.3 948.5 506.2L960 506L960 541L948.5 541C937 541 914 541 891.2 541C868.3 541 845.7 541 822.8 541C800 541 777 541 754.2 541C731.3 541 708.7 541 685.8 541C663 541 640 541 617.2 541C594.3 541 571.7 541 548.8 541C526 541 503 541 480 541C457 541 434 541 411.2 541C388.3 541 365.7 541 342.8 541C320 541 297 541 274.2 541C251.3 541 228.7 541 205.8 541C183 541 160 541 137.2 541C114.3 541 91.7 541 68.8 541C46 541 23 541 11.5 541L0 541Z" fill="#784979"></path><path d="M0 518L11.5 517.7C23 517.3 46 516.7 68.8 516.5C91.7 516.3 114.3 516.7 137.2 517.7C160 518.7 183 520.3 205.8 519.8C228.7 519.3 251.3 516.7 274.2 517.2C297 517.7 320 521.3 342.8 523.2C365.7 525 388.3 525 411.2 524.8C434 524.7 457 524.3 480 523.2C503 522 526 520 548.8 519.8C571.7 519.7 594.3 521.3 617.2 521.8C640 522.3 663 521.7 685.8 521.2C708.7 520.7 731.3 520.3 754.2 520.3C777 520.3 800 520.7 822.8 520.8C845.7 521 868.3 521 891.2 519.7C914 518.3 937 515.7 948.5 514.3L960 513L960 541L948.5 541C937 541 914 541 891.2 541C868.3 541 845.7 541 822.8 541C800 541 777 541 754.2 541C731.3 541 708.7 541 685.8 541C663 541 640 541 617.2 541C594.3 541 571.7 541 548.8 541C526 541 503 541 480 541C457 541 434 541 411.2 541C388.3 541 365.7 541 342.8 541C320 541 297 541 274.2 541C251.3 541 228.7 541 205.8 541C183 541 160 541 137.2 541C114.3 541 91.7 541 68.8 541C46 541 23 541 11.5 541L0 541Z" fill="#5a456f"></path><path d="M0 523L11.5 523.7C23 524.3 46 525.7 68.8 525.3C91.7 525 114.3 523 137.2 523.5C160 524 183 527 205.8 527.3C228.7 527.7 251.3 525.3 274.2 523.7C297 522 320 521 342.8 522C365.7 523 388.3 526 411.2 527.2C434 528.3 457 527.7 480 526.7C503 525.7 526 524.3 548.8 523.8C571.7 523.3 594.3 523.7 617.2 523.7C640 523.7 663 523.3 685.8 524.2C708.7 525 731.3 527 754.2 527.8C777 528.7 800 528.3 822.8 526.8C845.7 525.3 868.3 522.7 891.2 522.7C914 522.7 937 525.3 948.5 526.7L960 528L960 541L948.5 541C937 541 914 541 891.2 541C868.3 541 845.7 541 822.8 541C800 541 777 541 754.2 541C731.3 541 708.7 541 685.8 541C663 541 640 541 617.2 541C594.3 541 571.7 541 548.8 541C526 541 503 541 480 541C457 541 434 541 411.2 541C388.3 541 365.7 541 342.8 541C320 541 297 541 274.2 541C251.3 541 228.7 541 205.8 541C183 541 160 541 137.2 541C114.3 541 91.7 541 68.8 541C46 541 23 541 11.5 541L0 541Z" fill="#413e60"></path><path d="M0 534L11.5 534C23 534 46 534 68.8 533.5C91.7 533 114.3 532 137.2 531.3C160 530.7 183 530.3 205.8 530.8C228.7 531.3 251.3 532.7 274.2 532.7C297 532.7 320 531.3 342.8 530.5C365.7 529.7 388.3 529.3 411.2 530C434 530.7 457 532.3 480 532.3C503 532.3 526 530.7 548.8 530.3C571.7 530 594.3 531 617.2 530.7C640 530.3 663 528.7 685.8 528.5C708.7 528.3 731.3 529.7 754.2 529.7C777 529.7 800 528.3 822.8 528.2C845.7 528 868.3 529 891.2 530C914 531 937 532 948.5 532.5L960 533L960 541L948.5 541C937 541 914 541 891.2 541C868.3 541 845.7 541 822.8 541C800 541 777 541 754.2 541C731.3 541 708.7 541 685.8 541C663 541 640 541 617.2 541C594.3 541 571.7 541 548.8 541C526 541 503 541 480 541C457 541 434 541 411.2 541C388.3 541 365.7 541 342.8 541C320 541 297 541 274.2 541C251.3 541 228.7 541 205.8 541C183 541 160 541 137.2 541C114.3 541 91.7 541 68.8 541C46 541 23 541 11.5 541L0 541Z" fill="#2e364d"></path></svg>